<svg xmlns="http://www.w3.org/2000/svg" version="1.1" xmlns:xlink="http://www.w3.org/1999/xlink" xmlns:svgjs="http://svgjs.dev/svgjs" width="128" height="128" viewBox="0 0 128 128"><g transform="matrix(0.49282296650717705,0,0,0.49282296650717705,32.38608457894394,12.760752631578946)"><svg viewBox="0 0 58 95" data-background-color="#ffffff" preserveAspectRatio="xMidYMid meet" height="209" width="128" xmlns="http://www.w3.org/2000/svg" xmlns:xlink="http://www.w3.org/1999/xlink"><g id="tight-bounds" transform="matrix(1,0,0,1,0.06734547436602156,-0.24049999999999727)"><svg viewBox="0 0 57.86530905126796 95.481" height="95.481" width="57.86530905126796"><g><svg viewBox="0 0 57.86530905126796 95.481" height="95.481" width="57.86530905126796"><g><svg viewBox="0 0 57.86530905126796 95.481" height="95.481" width="57.86530905126796"><g id="textblocktransform"><svg viewBox="0 0 57.86530905126796 95.481" height="95.481" width="57.86530905126796" id="textblock"><g><svg viewBox="0 0 57.86530905126796 95.481" height="95.481" width="57.86530905126796"><g><svg viewBox="0 0 57.86530905126796 95.481" height="95.481" width="57.86530905126796"><g><svg xmlns="http://www.w3.org/2000/svg" xmlns:xlink="http://www.w3.org/1999/xlink" version="1.1" x="0" y="0" viewBox="24.340904368875893 7.654 51.318258500049936 84.678" enable-background="new 0 0 100 100" xml:space="preserve" height="95.481" width="57.86530905126796" class="icon-icon-0" data-fill-palette-color="accent" id="icon-0"><g fill="#0074d9" data-fill-palette-color="accent"><path fill="#0074d9" d="M69.231 64.095c-2.421 0-4.647-0.932-6.309-2.599-1.678 1.648-3.953 2.599-6.343 2.599-2.426 0-4.718-0.987-6.399-2.677-1.716 1.653-4.177 2.677-6.669 2.677-2.388 0-4.664-0.95-6.339-2.599-1.661 1.667-3.888 2.599-6.307 2.599-2.255 0-4.399-0.847-6.041-2.323-3.125 16.186 9.333 30.56 25.177 30.56 15.817 0 28.26-14.327 25.19-30.48C73.561 63.282 71.446 64.095 69.231 64.095z" data-fill-palette-color="accent"></path><path fill="#0074d9" d="M56.58 61.556c2.111 0 4.097-1.161 5.313-2.888C62.133 58.33 62.52 58 62.933 58c0.001 0 0.003 0 0.004 0 0.414 0 0.802 0.334 1.038 0.674 1.216 1.748 3.133 2.816 5.257 2.816 2.066 0 4.003-0.96 5.225-2.619-0.456-1.491-1.032-2.972-1.767-4.472C63.127 34.916 60.078 29.174 50.001 7.654 40.756 28.36 36.872 34.93 27.312 54.414c-0.722 1.469-1.288 2.939-1.74 4.403 1.218 1.713 3.19 2.737 5.294 2.737 2.122 0 4.038-1.003 5.255-2.751 0.237-0.341 0.599-0.571 1.043-0.545 0.412 0 0.799 0.201 1.037 0.539 1.219 1.726 3.204 2.758 5.311 2.758 2.216 0 4.482-1.124 5.64-2.797 0.017-0.024 0.038-0.044 0.057-0.066 0.029-0.035 0.056-0.073 0.09-0.104 0.037-0.038 0.076-0.069 0.117-0.102 0.019-0.015 0.036-0.033 0.057-0.049 0.005-0.003 0.012-0.005 0.017-0.008 0.044-0.031 0.093-0.055 0.141-0.08 0.029-0.014 0.055-0.031 0.083-0.042 0.042-0.018 0.086-0.028 0.129-0.04 0.036-0.011 0.072-0.025 0.108-0.032 0.042-0.008 0.083-0.009 0.125-0.013 0.04-0.004 0.078-0.01 0.116-0.01 0.044 0 0.089 0.006 0.134 0.013 0.036 0.002 0.073 0.003 0.108 0.01 0.042 0.008 0.084 0.022 0.125 0.036 0.037 0.011 0.075 0.02 0.112 0.034 0.035 0.013 0.068 0.034 0.103 0.053 0.041 0.02 0.083 0.041 0.122 0.066 0.007 0.005 0.015 0.008 0.022 0.013 0.026 0.018 0.047 0.042 0.072 0.061 0.034 0.028 0.067 0.054 0.099 0.085 0.036 0.035 0.066 0.076 0.098 0.113 0.017 0.022 0.036 0.04 0.051 0.062C52.453 60.51 54.449 61.556 56.58 61.556z" data-fill-palette-color="accent"></path></g></svg></g></svg></g></svg></g></svg></g></svg></g></svg></g><defs></defs></svg><rect width="57.86530905126796" height="95.481" fill="none" stroke="none" visibility="hidden"></rect></g></svg></g></svg>