<svg xmlns="http://www.w3.org/2000/svg" version="1.1" xmlns:xlink="http://www.w3.org/1999/xlink" xmlns:svgjs="http://svgjs.dev/svgjs" width="1000" height="1000" viewBox="0 0 1000 1000"><rect width="1000" height="1000" fill="#000000"></rect><g transform="matrix(0.7,0,0,0.7,149.57575757575756,384.62791902436106)"><svg viewBox="0 0 396 131" data-background-color="#ffffff" preserveAspectRatio="xMidYMid meet" height="330" width="1000" xmlns="http://www.w3.org/2000/svg" xmlns:xlink="http://www.w3.org/1999/xlink"><g id="tight-bounds" transform="matrix(1,0,0,1,0.2400000000000091,-0.07254282333894935)"><svg viewBox="0 0 395.52 131.14500476590865" height="131.14500476590865" width="395.52"><g><svg viewBox="0 0 632.9461907831901 209.86987056741808" height="131.14500476590865" width="395.52"><g transform="matrix(1,0,0,1,237.4261907831901,62.08642993565496)"><svg viewBox="0 0 395.52 85.69701069610815" height="85.69701069610815" width="395.52"><g id="textblocktransform"><svg viewBox="0 0 395.52 85.69701069610815" height="85.69701069610815" width="395.52" id="textblock"><g><svg viewBox="0 0 395.52 58.363239413943" height="58.363239413943" width="395.52"><g transform="matrix(1,0,0,1,0,0)"><svg width="395.52" viewBox="0 -36.25 303.25 44.75" height="58.363239413943" data-palette-color="#0074d9"><path d="M34.5 0L26.34 0 23.75-8.5 10.74-8.5 8.15 0 0 0 12.6-35.84 21.85-35.84 34.5 0ZM12.65-14.84L21.95-14.84Q18.36-26.39 17.91-27.91 17.46-29.42 17.26-30.3L17.26-30.3Q16.46-27.17 12.65-14.84L12.65-14.84ZM71.38-17.9L71.38-17.9Q71.38-11.6 69.15-7.34 66.92-3.08 62.6-1.1L62.6-1.1 71.19 8.5 61.5 8.5 54.95 0.49 54.39 0.49Q46.19 0.49 41.79-4.27 37.4-9.03 37.4-17.94L37.4-17.94Q37.4-26.86 41.81-31.56 46.21-36.25 54.44-36.25L54.44-36.25Q62.67-36.25 67.03-31.52 71.38-26.78 71.38-17.9ZM45.33-17.9L45.33-17.9Q45.33-11.91 47.6-8.89 49.88-5.86 54.39-5.86L54.39-5.86Q63.45-5.86 63.45-17.9L63.45-17.9Q63.45-29.96 54.44-29.96L54.44-29.96Q49.92-29.96 47.63-26.92 45.33-23.88 45.33-17.9ZM100.29-35.69L107.83-35.69 107.83-12.6Q107.83-8.64 106.06-5.66 104.29-2.69 100.95-1.1 97.6 0.49 93.04 0.49L93.04 0.49Q86.15 0.49 82.34-3.04 78.54-6.57 78.54-12.7L78.54-12.7 78.54-35.69 86.08-35.69 86.08-13.84Q86.08-9.72 87.74-7.79 89.4-5.86 93.23-5.86L93.23-5.86Q96.94-5.86 98.62-7.8 100.29-9.74 100.29-13.89L100.29-13.89 100.29-35.69ZM146.57 0L138.42 0 135.83-8.5 122.82-8.5 120.23 0 112.08 0 124.68-35.84 133.93-35.84 146.57 0ZM124.72-14.84L134.03-14.84Q130.44-26.39 129.99-27.91 129.53-29.42 129.34-30.3L129.34-30.3Q128.53-27.17 124.72-14.84L124.72-14.84ZM171.62-29.49L171.62-18.9 174.11-18.9Q177.6-18.9 179.33-20.28 181.07-21.66 181.07-24.29L181.07-24.29Q181.07-26.95 179.61-28.22 178.16-29.49 175.06-29.49L175.06-29.49 171.62-29.49ZM188.71-24.56L188.71-24.56Q188.71-18.8 185.11-15.75 181.51-12.7 174.87-12.7L174.87-12.7 171.62-12.7 171.62 0 164.05 0 164.05-35.69 175.45-35.69Q181.95-35.69 185.33-32.9 188.71-30.1 188.71-24.56ZM203.01-29.49L203.01-19.85 205.45-19.85Q209.04-19.85 210.75-21.04 212.46-22.24 212.46-24.8L212.46-24.8Q212.46-27.34 210.71-28.42 208.97-29.49 205.31-29.49L205.31-29.49 203.01-29.49ZM207.04-13.7L203.01-13.7 203.01 0 195.44 0 195.44-35.69 205.84-35.69Q213.12-35.69 216.61-33.04 220.1-30.4 220.1-25L220.1-25Q220.1-21.85 218.37-19.4 216.64-16.94 213.46-15.55L213.46-15.55Q221.52-3.52 223.96 0L223.96 0 215.56 0 207.04-13.7ZM260.85-17.9L260.85-17.9Q260.85-9.03 256.45-4.27 252.06 0.49 243.85 0.49L243.85 0.49Q235.65 0.49 231.26-4.27 226.86-9.03 226.86-17.94L226.86-17.94Q226.86-26.86 231.27-31.56 235.68-36.25 243.9-36.25L243.9-36.25Q252.13-36.25 256.49-31.52 260.85-26.78 260.85-17.9ZM234.8-17.9L234.8-17.9Q234.8-11.91 237.07-8.89 239.34-5.86 243.85-5.86L243.85-5.86Q252.91-5.86 252.91-17.9L252.91-17.9Q252.91-29.96 243.9-29.96L243.9-29.96Q239.39-29.96 237.09-26.92 234.8-23.88 234.8-17.9ZM275.69-14.11L275.69 0 268.24 0 268.24-35.69 288.7-35.69 288.7-29.49 275.69-29.49 275.69-20.29 287.8-20.29 287.8-14.11 275.69-14.11ZM303.25 0L295.68 0 295.68-35.69 303.25-35.69 303.25 0Z" opacity="1" transform="matrix(1,0,0,1,0,0)" fill="#ffffff" class="wordmark-text-0" data-fill-palette-color="primary" id="text-0"></path></svg></g></svg></g><g transform="matrix(1,0,0,1,0,72.141399521829)"><svg viewBox="0 0 232.209792 13.555611174279154" height="13.555611174279154" width="232.209792"><g transform="matrix(1,0,0,1,0,0)"><svg width="232.209792" viewBox="4.91 -38.26 861.01 50.269999999999996" height="13.555611174279154" data-palette-color="#0074d9"><path d="M27.54-25.29L27.54-25.29Q27.54-19.87 23.84-16.96 20.14-14.04 13.26-14.04L13.26-14.04 9.06-14.04 9.06 0 4.91 0 4.91-35.69 14.16-35.69Q27.54-35.69 27.54-25.29ZM9.06-32.1L9.06-17.6 12.79-17.6Q18.31-17.6 20.78-19.38 23.24-21.17 23.24-25.1L23.24-25.1Q23.24-28.64 20.92-30.37 18.6-32.1 13.7-32.1L13.7-32.1 9.06-32.1ZM46.6-27.25L46.6-27.25Q48.39-27.25 49.8-26.95L49.8-26.95 49.24-23.19Q47.58-23.56 46.31-23.56L46.31-23.56Q43.06-23.56 40.76-20.92 38.45-18.29 38.45-14.36L38.45-14.36 38.45 0 34.4 0 34.4-26.76 37.74-26.76 38.21-21.8 38.4-21.8Q39.89-24.41 41.99-25.83 44.09-27.25 46.6-27.25ZM77.9-13.4L77.9-13.4Q77.9-6.86 74.6-3.19 71.31 0.49 65.5 0.49L65.5 0.49Q61.91 0.49 59.13-1.2 56.34-2.88 54.83-6.03 53.32-9.18 53.32-13.4L53.32-13.4Q53.32-19.95 56.59-23.6 59.86-27.25 65.67-27.25L65.67-27.25Q71.28-27.25 74.59-23.51 77.9-19.78 77.9-13.4ZM57.51-13.4L57.51-13.4Q57.51-8.28 59.57-5.59 61.62-2.91 65.6-2.91L65.6-2.91Q69.58-2.91 71.64-5.58 73.7-8.25 73.7-13.4L73.7-13.4Q73.7-18.51 71.64-21.15 69.58-23.8 65.55-23.8L65.55-23.8Q61.57-23.8 59.54-21.19 57.51-18.58 57.51-13.4ZM97.06-26.76L97.06-23.61 90.25-23.61 90.25 0 86.2 0 86.2-23.61 81.41-23.61 81.41-25.44 86.2-26.9 86.2-28.39Q86.2-38.26 94.82-38.26L94.82-38.26Q96.94-38.26 99.8-37.4L99.8-37.4 98.75-34.16Q96.4-34.91 94.74-34.91L94.74-34.91Q92.45-34.91 91.35-33.39 90.25-31.86 90.25-28.49L90.25-28.49 90.25-26.76 97.06-26.76ZM113.25 0.49L113.25 0.49Q107.31 0.49 103.88-3.13 100.45-6.74 100.45-13.16L100.45-13.16Q100.45-19.63 103.64-23.44 106.83-27.25 112.2-27.25L112.2-27.25Q117.23-27.25 120.16-23.94 123.09-20.63 123.09-15.21L123.09-15.21 123.09-12.65 104.65-12.65Q104.78-7.93 107.03-5.49 109.29-3.05 113.39-3.05L113.39-3.05Q117.71-3.05 121.94-4.86L121.94-4.86 121.94-1.25Q119.79-0.32 117.87 0.09 115.96 0.49 113.25 0.49ZM112.15-23.85L112.15-23.85Q108.93-23.85 107.01-21.75 105.09-19.65 104.75-15.94L104.75-15.94 118.74-15.94Q118.74-19.78 117.03-21.81 115.32-23.85 112.15-23.85ZM147.25-7.3L147.25-7.3Q147.25-3.56 144.47-1.54 141.69 0.49 136.66 0.49L136.66 0.49Q131.34 0.49 128.36-1.2L128.36-1.2 128.36-4.96Q130.29-3.98 132.49-3.42 134.7-2.86 136.76-2.86L136.76-2.86Q139.93-2.86 141.64-3.87 143.35-4.88 143.35-6.96L143.35-6.96Q143.35-8.52 141.99-9.63 140.64-10.74 136.71-12.26L136.71-12.26Q132.97-13.65 131.4-14.69 129.82-15.72 129.05-17.04 128.28-18.36 128.28-20.19L128.28-20.19Q128.28-23.46 130.94-25.35 133.61-27.25 138.24-27.25L138.24-27.25Q142.57-27.25 146.69-25.49L146.69-25.49 145.25-22.19Q141.22-23.85 137.95-23.85L137.95-23.85Q135.07-23.85 133.61-22.95 132.14-22.05 132.14-20.46L132.14-20.46Q132.14-19.38 132.69-18.63 133.24-17.87 134.46-17.19 135.68-16.5 139.15-15.21L139.15-15.21Q143.91-13.48 145.58-11.72 147.25-9.96 147.25-7.3ZM171.1-7.3L171.1-7.3Q171.1-3.56 168.32-1.54 165.54 0.49 160.51 0.49L160.51 0.49Q155.19 0.49 152.21-1.2L152.21-1.2 152.21-4.96Q154.14-3.98 156.34-3.42 158.55-2.86 160.61-2.86L160.61-2.86Q163.78-2.86 165.49-3.87 167.2-4.88 167.2-6.96L167.2-6.96Q167.2-8.52 165.84-9.63 164.49-10.74 160.56-12.26L160.56-12.26Q156.82-13.65 155.25-14.69 153.67-15.72 152.9-17.04 152.13-18.36 152.13-20.19L152.13-20.19Q152.13-23.46 154.79-25.35 157.46-27.25 162.09-27.25L162.09-27.25Q166.42-27.25 170.54-25.49L170.54-25.49 169.1-22.19Q165.07-23.85 161.8-23.85L161.8-23.85Q158.92-23.85 157.46-22.95 155.99-22.05 155.99-20.46L155.99-20.46Q155.99-19.38 156.54-18.63 157.09-17.87 158.31-17.19 159.53-16.5 163-15.21L163-15.21Q167.76-13.48 169.43-11.72 171.1-9.96 171.1-7.3ZM181.75-26.76L181.75 0 177.69 0 177.69-26.76 181.75-26.76ZM177.35-34.01L177.35-34.01Q177.35-35.4 178.03-36.05 178.72-36.69 179.74-36.69L179.74-36.69Q180.72-36.69 181.43-36.04 182.14-35.38 182.14-34.01L182.14-34.01Q182.14-32.64 181.43-31.97 180.72-31.3 179.74-31.3L179.74-31.3Q178.72-31.3 178.03-31.97 177.35-32.64 177.35-34.01ZM213.43-13.4L213.43-13.4Q213.43-6.86 210.14-3.19 206.84 0.49 201.03 0.49L201.03 0.49Q197.44 0.49 194.66-1.2 191.87-2.88 190.36-6.03 188.85-9.18 188.85-13.4L188.85-13.4Q188.85-19.95 192.12-23.6 195.39-27.25 201.2-27.25L201.2-27.25Q206.82-27.25 210.12-23.51 213.43-19.78 213.43-13.4ZM193.05-13.4L193.05-13.4Q193.05-8.28 195.1-5.59 197.15-2.91 201.13-2.91L201.13-2.91Q205.11-2.91 207.17-5.58 209.23-8.25 209.23-13.4L209.23-13.4Q209.23-18.51 207.17-21.15 205.11-23.8 201.08-23.8L201.08-23.8Q197.1-23.8 195.07-21.19 193.05-18.58 193.05-13.4ZM242.9 0L238.84 0 238.84-17.31Q238.84-20.58 237.36-22.19 235.87-23.8 232.69-23.8L232.69-23.8Q228.49-23.8 226.54-21.53 224.59-19.26 224.59-14.04L224.59-14.04 224.59 0 220.53 0 220.53-26.76 223.83-26.76 224.49-23.1 224.68-23.1Q225.93-25.07 228.18-26.16 230.42-27.25 233.18-27.25L233.18-27.25Q238.01-27.25 240.46-24.91 242.9-22.58 242.9-17.46L242.9-17.46 242.9 0ZM270.68 0L267.68 0 266.87-3.81 266.67-3.81Q264.67-1.29 262.68-0.4 260.69 0.49 257.71 0.49L257.71 0.49Q253.73 0.49 251.48-1.56 249.22-3.61 249.22-7.4L249.22-7.4Q249.22-15.5 262.18-15.89L262.18-15.89 266.72-16.04 266.72-17.7Q266.72-20.85 265.37-22.35 264.01-23.85 261.03-23.85L261.03-23.85Q257.69-23.85 253.47-21.8L253.47-21.8 252.22-24.9Q254.2-25.98 256.55-26.59 258.91-27.2 261.28-27.2L261.28-27.2Q266.06-27.2 268.37-25.07 270.68-22.95 270.68-18.26L270.68-18.26 270.68 0ZM258.52-2.86L258.52-2.86Q262.3-2.86 264.46-4.93 266.63-7.01 266.63-10.74L266.63-10.74 266.63-13.16 262.57-12.99Q257.74-12.82 255.6-11.49 253.47-10.16 253.47-7.35L253.47-7.35Q253.47-5.15 254.8-4 256.13-2.86 258.52-2.86ZM283.08-37.99L283.08 0 279.03 0 279.03-37.99 283.08-37.99ZM316.86-27.25L316.86-27.25Q318.64-27.25 320.06-26.95L320.06-26.95 319.5-23.19Q317.84-23.56 316.57-23.56L316.57-23.56Q313.32-23.56 311.01-20.92 308.71-18.29 308.71-14.36L308.71-14.36 308.71 0 304.66 0 304.66-26.76 308-26.76 308.46-21.8 308.66-21.8Q310.15-24.41 312.25-25.83 314.35-27.25 316.86-27.25ZM336.37 0.49L336.37 0.49Q330.43 0.49 327-3.13 323.57-6.74 323.57-13.16L323.57-13.16Q323.57-19.63 326.76-23.44 329.95-27.25 335.32-27.25L335.32-27.25Q340.35-27.25 343.28-23.94 346.21-20.63 346.21-15.21L346.21-15.21 346.21-12.65 327.77-12.65Q327.89-7.93 330.15-5.49 332.41-3.05 336.51-3.05L336.51-3.05Q340.83-3.05 345.06-4.86L345.06-4.86 345.06-1.25Q342.91-0.32 340.99 0.09 339.08 0.49 336.37 0.49ZM335.27-23.85L335.27-23.85Q332.05-23.85 330.13-21.75 328.21-19.65 327.87-15.94L327.87-15.94 341.86-15.94Q341.86-19.78 340.15-21.81 338.44-23.85 335.27-23.85ZM365.56 0.49L365.56 0.49Q362.95 0.49 360.79-0.48 358.63-1.44 357.16-3.44L357.16-3.44 356.87-3.44Q357.16-1.1 357.16 1L357.16 1 357.16 12.01 353.11 12.01 353.11-26.76 356.41-26.76 356.97-23.1 357.16-23.1Q358.73-25.29 360.8-26.27 362.88-27.25 365.56-27.25L365.56-27.25Q370.89-27.25 373.78-23.61 376.67-19.97 376.67-13.4L376.67-13.4Q376.67-6.81 373.73-3.16 370.79 0.49 365.56 0.49ZM364.98-23.8L364.98-23.8Q360.88-23.8 359.04-21.53 357.21-19.26 357.16-14.31L357.16-14.31 357.16-13.4Q357.16-7.76 359.04-5.33 360.92-2.91 365.07-2.91L365.07-2.91Q368.54-2.91 370.51-5.71 372.47-8.52 372.47-13.45L372.47-13.45Q372.47-18.46 370.51-21.13 368.54-23.8 364.98-23.8ZM403.21 0L400.2 0 399.4-3.81 399.2-3.81Q397.2-1.29 395.21-0.4 393.22 0.49 390.24 0.49L390.24 0.49Q386.26 0.49 384.01-1.56 381.75-3.61 381.75-7.4L381.75-7.4Q381.75-15.5 394.71-15.89L394.71-15.89 399.25-16.04 399.25-17.7Q399.25-20.85 397.9-22.35 396.54-23.85 393.56-23.85L393.56-23.85Q390.22-23.85 386-21.8L386-21.8 384.75-24.9Q386.73-25.98 389.08-26.59 391.44-27.2 393.81-27.2L393.81-27.2Q398.59-27.2 400.9-25.07 403.21-22.95 403.21-18.26L403.21-18.26 403.21 0ZM391.05-2.86L391.05-2.86Q394.83-2.86 396.99-4.93 399.15-7.01 399.15-10.74L399.15-10.74 399.15-13.16 395.1-12.99Q390.27-12.82 388.13-11.49 386-10.16 386-7.35L386-7.35Q386-5.15 387.33-4 388.66-2.86 391.05-2.86ZM415.61-26.76L415.61 0 411.55 0 411.55-26.76 415.61-26.76ZM411.21-34.01L411.21-34.01Q411.21-35.4 411.9-36.05 412.58-36.69 413.6-36.69L413.6-36.69Q414.58-36.69 415.29-36.04 416-35.38 416-34.01L416-34.01Q416-32.64 415.29-31.97 414.58-31.3 413.6-31.3L413.6-31.3Q412.58-31.3 411.9-31.97 411.21-32.64 411.21-34.01ZM436.41-27.25L436.41-27.25Q438.19-27.25 439.6-26.95L439.6-26.95 439.04-23.19Q437.38-23.56 436.11-23.56L436.11-23.56Q432.87-23.56 430.56-20.92 428.25-18.29 428.25-14.36L428.25-14.36 428.25 0 424.2 0 424.2-26.76 427.54-26.76 428.01-21.8 428.2-21.8Q429.69-24.41 431.79-25.83 433.89-27.25 436.41-27.25ZM480.69-13.4L480.69-13.4Q480.69-6.86 477.39-3.19 474.1 0.49 468.28 0.49L468.28 0.49Q464.7 0.49 461.91-1.2 459.13-2.88 457.62-6.03 456.1-9.18 456.1-13.4L456.1-13.4Q456.1-19.95 459.37-23.6 462.65-27.25 468.46-27.25L468.46-27.25Q474.07-27.25 477.38-23.51 480.69-19.78 480.69-13.4ZM460.3-13.4L460.3-13.4Q460.3-8.28 462.35-5.59 464.4-2.91 468.38-2.91L468.38-2.91Q472.36-2.91 474.43-5.58 476.49-8.25 476.49-13.4L476.49-13.4Q476.49-18.51 474.43-21.15 472.36-23.8 468.33-23.8L468.33-23.8Q464.35-23.8 462.33-21.19 460.3-18.58 460.3-13.4ZM499.85-26.76L499.85-23.61 493.04-23.61 493.04 0 488.99 0 488.99-23.61 484.2-23.61 484.2-25.44 488.99-26.9 488.99-28.39Q488.99-38.26 497.6-38.26L497.6-38.26Q499.73-38.26 502.58-37.4L502.58-37.4 501.53-34.16Q499.19-34.91 497.53-34.91L497.53-34.91Q495.24-34.91 494.14-33.39 493.04-31.86 493.04-28.49L493.04-28.49 493.04-26.76 499.85-26.76ZM537.17 0L534.17 0 533.37-3.81 533.17-3.81Q531.17-1.29 529.18-0.4 527.19 0.49 524.21 0.49L524.21 0.49Q520.23 0.49 517.97-1.56 515.71-3.61 515.71-7.4L515.71-7.4Q515.71-15.5 528.68-15.89L528.68-15.89 533.22-16.04 533.22-17.7Q533.22-20.85 531.86-22.35 530.51-23.85 527.53-23.85L527.53-23.85Q524.19-23.85 519.96-21.8L519.96-21.8 518.72-24.9Q520.69-25.98 523.05-26.59 525.41-27.2 527.77-27.2L527.77-27.2Q532.56-27.2 534.87-25.07 537.17-22.95 537.17-18.26L537.17-18.26 537.17 0ZM525.02-2.86L525.02-2.86Q528.8-2.86 530.96-4.93 533.12-7.01 533.12-10.74L533.12-10.74 533.12-13.16 529.07-12.99Q524.23-12.82 522.1-11.49 519.96-10.16 519.96-7.35L519.96-7.35Q519.96-5.15 521.29-4 522.62-2.86 525.02-2.86ZM549.57-37.99L549.57 0 545.52 0 545.52-37.99 549.57-37.99ZM562.22-37.99L562.22 0 558.17 0 558.17-37.99 562.22-37.99ZM592.44-2.86L592.44-2.86Q593.51-2.86 594.51-3.02 595.51-3.17 596.1-3.34L596.1-3.34 596.1-0.24Q595.44 0.07 594.16 0.28 592.88 0.49 591.85 0.49L591.85 0.49Q584.09 0.49 584.09-7.69L584.09-7.69 584.09-23.61 580.25-23.61 580.25-25.56 584.09-27.25 585.8-32.96 588.14-32.96 588.14-26.76 595.9-26.76 595.9-23.61 588.14-23.61 588.14-7.86Q588.14-5.44 589.29-4.15 590.44-2.86 592.44-2.86ZM607.99 0.15L597.2-26.76 601.54-26.76 607.4-11.5Q609.33-6.27 609.79-3.96L609.79-3.96 609.99-3.96Q610.31-5.2 611.32-8.22 612.33-11.23 617.95-26.76L617.95-26.76 622.29-26.76 610.79 3.71Q609.09 8.23 606.8 10.12 604.52 12.01 601.2 12.01L601.2 12.01Q599.34 12.01 597.54 11.6L597.54 11.6 597.54 8.35Q598.88 8.64 600.54 8.64L600.54 8.64Q604.72 8.64 606.5 3.96L606.5 3.96 607.99 0.15ZM639.09 0.49L639.09 0.49Q636.48 0.49 634.31-0.48 632.15-1.44 630.69-3.44L630.69-3.44 630.4-3.44Q630.69-1.1 630.69 1L630.69 1 630.69 12.01 626.64 12.01 626.64-26.76 629.93-26.76 630.49-23.1 630.69-23.1Q632.25-25.29 634.33-26.27 636.4-27.25 639.09-27.25L639.09-27.25Q644.41-27.25 647.3-23.61 650.2-19.97 650.2-13.4L650.2-13.4Q650.2-6.81 647.25-3.16 644.31 0.49 639.09 0.49ZM638.5-23.8L638.5-23.8Q634.4-23.8 632.57-21.53 630.74-19.26 630.69-14.31L630.69-14.31 630.69-13.4Q630.69-7.76 632.57-5.33 634.45-2.91 638.6-2.91L638.6-2.91Q642.07-2.91 644.03-5.71 646-8.52 646-13.45L646-13.45Q646-18.46 644.03-21.13 642.07-23.8 638.5-23.8ZM668.58 0.49L668.58 0.49Q662.64 0.49 659.21-3.13 655.78-6.74 655.78-13.16L655.78-13.16Q655.78-19.63 658.97-23.44 662.16-27.25 667.53-27.25L667.53-27.25Q672.56-27.25 675.49-23.94 678.42-20.63 678.42-15.21L678.42-15.21 678.42-12.65 659.98-12.65Q660.11-7.93 662.36-5.49 664.62-3.05 668.72-3.05L668.72-3.05Q673.05-3.05 677.27-4.86L677.27-4.86 677.27-1.25Q675.12-0.32 673.2 0.09 671.29 0.49 668.58 0.49ZM667.48-23.85L667.48-23.85Q664.26-23.85 662.34-21.75 660.42-19.65 660.08-15.94L660.08-15.94 674.07-15.94Q674.07-19.78 672.36-21.81 670.65-23.85 667.48-23.85ZM702.58-7.3L702.58-7.3Q702.58-3.56 699.8-1.54 697.02 0.49 691.99 0.49L691.99 0.49Q686.67 0.49 683.69-1.2L683.69-1.2 683.69-4.96Q685.62-3.98 687.83-3.42 690.03-2.86 692.09-2.86L692.09-2.86Q695.26-2.86 696.97-3.87 698.68-4.88 698.68-6.96L698.68-6.96Q698.68-8.52 697.32-9.63 695.97-10.74 692.04-12.26L692.04-12.26Q688.3-13.65 686.73-14.69 685.15-15.72 684.38-17.04 683.61-18.36 683.61-20.19L683.61-20.19Q683.61-23.46 686.28-25.35 688.94-27.25 693.57-27.25L693.57-27.25Q697.9-27.25 702.02-25.49L702.02-25.49 700.58-22.19Q696.55-23.85 693.28-23.85L693.28-23.85Q690.4-23.85 688.94-22.95 687.47-22.05 687.47-20.46L687.47-20.46Q687.47-19.38 688.02-18.63 688.57-17.87 689.79-17.19 691.01-16.5 694.48-15.21L694.48-15.21Q699.24-13.48 700.91-11.72 702.58-9.96 702.58-7.3ZM745.25-13.4L745.25-13.4Q745.25-6.86 741.96-3.19 738.66 0.49 732.85 0.49L732.85 0.49Q729.26 0.49 726.48-1.2 723.7-2.88 722.18-6.03 720.67-9.18 720.67-13.4L720.67-13.4Q720.67-19.95 723.94-23.6 727.21-27.25 733.02-27.25L733.02-27.25Q738.64-27.25 741.95-23.51 745.25-19.78 745.25-13.4ZM724.87-13.4L724.87-13.4Q724.87-8.28 726.92-5.59 728.97-2.91 732.95-2.91L732.95-2.91Q736.93-2.91 738.99-5.58 741.06-8.25 741.06-13.4L741.06-13.4Q741.06-18.51 738.99-21.15 736.93-23.8 732.9-23.8L732.9-23.8Q728.92-23.8 726.9-21.19 724.87-18.58 724.87-13.4ZM764.42-26.76L764.42-23.61 757.61-23.61 757.61 0 753.55 0 753.55-23.61 748.77-23.61 748.77-25.44 753.55-26.9 753.55-28.39Q753.55-38.26 762.17-38.26L762.17-38.26Q764.29-38.26 767.15-37.4L767.15-37.4 766.1-34.16Q763.76-34.91 762.1-34.91L762.1-34.91Q759.8-34.91 758.7-33.39 757.61-31.86 757.61-28.49L757.61-28.49 757.61-26.76 764.42-26.76ZM808.94 0L804.13 0 799.23-15.7Q798.76-17.14 797.49-22.24L797.49-22.24 797.3-22.24Q796.32-17.97 795.59-15.65L795.59-15.65 790.53 0 785.85 0 778.55-26.76 782.8-26.76Q785.38-16.67 786.74-11.4 788.09-6.13 788.29-4.3L788.29-4.3 788.48-4.3Q788.75-5.69 789.35-7.9 789.95-10.11 790.39-11.4L790.39-11.4 795.3-26.76 799.69-26.76 804.48-11.4Q805.84-7.2 806.33-4.35L806.33-4.35 806.53-4.35Q806.62-5.22 807.05-7.06 807.48-8.89 812.14-26.76L812.14-26.76 816.34-26.76 808.94 0ZM832.48 0.49L832.48 0.49Q826.54 0.49 823.11-3.13 819.68-6.74 819.68-13.16L819.68-13.16Q819.68-19.63 822.87-23.44 826.05-27.25 831.43-27.25L831.43-27.25Q836.46-27.25 839.39-23.94 842.31-20.63 842.31-15.21L842.31-15.21 842.31-12.65 823.88-12.65Q824-7.93 826.26-5.49 828.52-3.05 832.62-3.05L832.62-3.05Q836.94-3.05 841.17-4.86L841.17-4.86 841.17-1.25Q839.02-0.32 837.1 0.09 835.19 0.49 832.48 0.49ZM831.38-23.85L831.38-23.85Q828.15-23.85 826.24-21.75 824.32-19.65 823.98-15.94L823.98-15.94 837.97-15.94Q837.97-19.78 836.26-21.81 834.55-23.85 831.38-23.85ZM853.27-37.99L853.27 0 849.22 0 849.22-37.99 853.27-37.99ZM865.92-37.99L865.92 0 861.87 0 861.87-37.99 865.92-37.99Z" opacity="1" transform="matrix(1,0,0,1,0,0)" fill="#ffffff" class="slogan-text-1" data-fill-palette-color="secondary" id="text-1"></path></svg></g></svg></g></svg></g></svg></g><g><svg viewBox="0 0 209.86987056741808 209.86987056741808" height="209.86987056741808" width="209.86987056741808"><g><svg></svg></g><g id="icon-0"><svg viewBox="0 0 209.86987056741808 209.86987056741808" height="209.86987056741808" width="209.86987056741808"><g><path d="M0 104.935c0-57.954 46.981-104.935 104.935-104.935 57.954 0 104.935 46.981 104.935 104.935 0 57.954-46.981 104.935-104.935 104.935-57.954 0-104.935-46.981-104.935-104.935zM104.935 204.607c55.047 0 99.672-44.625 99.672-99.672 0-55.047-44.625-99.672-99.672-99.672-55.047 0-99.672 44.625-99.672 99.672 0 55.047 44.625 99.672 99.672 99.672z" data-fill-palette-color="accent" fill="#ffffff" stroke="transparent"></path></g><g transform="matrix(1,0,0,1,67.45950042759866,43.09836940058136)"><svg viewBox="0 0 74.95086971222076 123.67313176625535" height="123.67313176625535" width="74.95086971222076"><g><svg xmlns="http://www.w3.org/2000/svg" xmlns:xlink="http://www.w3.org/1999/xlink" version="1.1" x="0" y="0" viewBox="24.340904368875893 7.654 51.318258500049936 84.678" enable-background="new 0 0 100 100" xml:space="preserve" height="123.67313176625535" width="74.95086971222076" class="icon-z$-0" data-fill-palette-color="accent" id="z$-0"><g fill="#0074d9" data-fill-palette-color="accent"><path fill="#ffffff" d="M69.231 64.095c-2.421 0-4.647-0.932-6.309-2.599-1.678 1.648-3.953 2.599-6.343 2.599-2.426 0-4.718-0.987-6.399-2.677-1.716 1.653-4.177 2.677-6.669 2.677-2.388 0-4.664-0.95-6.339-2.599-1.661 1.667-3.888 2.599-6.307 2.599-2.255 0-4.399-0.847-6.041-2.323-3.125 16.186 9.333 30.56 25.177 30.56 15.817 0 28.26-14.327 25.19-30.48C73.561 63.282 71.446 64.095 69.231 64.095z" data-fill-palette-color="accent"></path><path fill="#ffffff" d="M56.58 61.556c2.111 0 4.097-1.161 5.313-2.888C62.133 58.33 62.52 58 62.933 58c0.001 0 0.003 0 0.004 0 0.414 0 0.802 0.334 1.038 0.674 1.216 1.748 3.133 2.816 5.257 2.816 2.066 0 4.003-0.96 5.225-2.619-0.456-1.491-1.032-2.972-1.767-4.472C63.127 34.916 60.078 29.174 50.001 7.654 40.756 28.36 36.872 34.93 27.312 54.414c-0.722 1.469-1.288 2.939-1.74 4.403 1.218 1.713 3.19 2.737 5.294 2.737 2.122 0 4.038-1.003 5.255-2.751 0.237-0.341 0.599-0.571 1.043-0.545 0.412 0 0.799 0.201 1.037 0.539 1.219 1.726 3.204 2.758 5.311 2.758 2.216 0 4.482-1.124 5.64-2.797 0.017-0.024 0.038-0.044 0.057-0.066 0.029-0.035 0.056-0.073 0.09-0.104 0.037-0.038 0.076-0.069 0.117-0.102 0.019-0.015 0.036-0.033 0.057-0.049 0.005-0.003 0.012-0.005 0.017-0.008 0.044-0.031 0.093-0.055 0.141-0.08 0.029-0.014 0.055-0.031 0.083-0.042 0.042-0.018 0.086-0.028 0.129-0.04 0.036-0.011 0.072-0.025 0.108-0.032 0.042-0.008 0.083-0.009 0.125-0.013 0.04-0.004 0.078-0.01 0.116-0.01 0.044 0 0.089 0.006 0.134 0.013 0.036 0.002 0.073 0.003 0.108 0.01 0.042 0.008 0.084 0.022 0.125 0.036 0.037 0.011 0.075 0.02 0.112 0.034 0.035 0.013 0.068 0.034 0.103 0.053 0.041 0.02 0.083 0.041 0.122 0.066 0.007 0.005 0.015 0.008 0.022 0.013 0.026 0.018 0.047 0.042 0.072 0.061 0.034 0.028 0.067 0.054 0.099 0.085 0.036 0.035 0.066 0.076 0.098 0.113 0.017 0.022 0.036 0.04 0.051 0.062C52.453 60.51 54.449 61.556 56.58 61.556z" data-fill-palette-color="accent"></path></g></svg></g></svg></g></svg></g></svg></g></svg></g><defs></defs></svg><rect width="395.52" height="131.14500476590865" fill="none" stroke="none" visibility="hidden"></rect></g></svg></g></svg>